<svg width="32" height="32" viewBox="0 0 32 32" fill="none" xmlns="http://www.w3.org/2000/svg">
<path d="M14.3654 7.19813V0L16.8652 1.09267e-07V7.19813H14.3654ZM15.6153 16.164L6.92218 7.47089L8.68995 5.70312L15.6153 12.6285L22.5407 5.70312L24.3084 7.47089L15.6153 16.164Z" fill="black"/>
<path d="M12.3926 26.8155C10.6532 22.9159 6.92664 20.0973 2.5 19.6466L2.5 31.7784H0L6.4231e-07 17.0841H1.25C7.62342 17.0841 13.0463 21.1427 15.082 26.8155H12.3926Z" fill="black"/>
<path d="M28.9092 31.7784V19.6466C24.4827 20.0973 20.757 22.9161 19.0176 26.8155H16.3291C18.3648 21.1429 23.786 17.0841 30.1592 17.0841H31.4092V31.7784H28.9092Z" fill="black"/>
</svg>
